<svg xmlns="http://www.w3.org/2000/svg" viewBox="0 0 220 220" width="220" height="220">
  <line x1="100" y1="60" x2="100" y2="94" stroke="#EF9F27" stroke-width="1.5" stroke-linecap="square"/>
  <line x1="100" y1="126" x2="100" y2="160" stroke="#EF9F27" stroke-width="1.5" stroke-linecap="square"/>
  <line x1="84" y1="110" x2="54" y2="110" stroke="#EF9F27" stroke-width="1.5" stroke-linecap="square"/>
  <line x1="116" y1="110" x2="146" y2="110" stroke="#EF9F27" stroke-width="1.5" stroke-linecap="square"/>
  <line x1="156" y1="100" x2="156" y2="74" stroke="#EF9F27" stroke-width="1.5" stroke-linecap="square"/>

  <polygon points="100,40 110,50 100,60 90,50" fill="none" stroke="#EF9F27" stroke-width="1.5"/>
  <circle cx="100" cy="50" r="2.5" fill="#EF9F27"/>

  <polygon points="100,94 116,110 100,126 84,110" fill="none" stroke="#EF9F27" stroke-width="2"/>
  <circle cx="100" cy="110" r="3.5" fill="#EF9F27"/>

  <polygon points="100,160 110,170 100,180 90,170" fill="none" stroke="#EF9F27" stroke-width="1.5"/>
  <circle cx="100" cy="170" r="2.5" fill="#EF9F27"/>

  <polygon points="44,100 54,110 44,120 34,110" fill="none" stroke="#EF9F27" stroke-width="1.5"/>
  <circle cx="44" cy="110" r="2.5" fill="#EF9F27"/>

  <polygon points="156,100 166,110 156,120 146,110" fill="none" stroke="#EF9F27" stroke-width="1.5"/>
  <circle cx="156" cy="110" r="2.5" fill="#EF9F27"/>

  <polygon points="156,54 166,64 156,74 146,64" fill="none" stroke="#EF9F27" stroke-width="1.5"/>
  <circle cx="156" cy="64" r="2.5" fill="#EF9F27"/>
</svg>
